# xmcd
#
# Track frame offsets: 
#        150
#        9750
#        24150
#        38214
#        51162
#        65481
#        73685
#        86635
#        95785
#        107035
#        116266
#        131149
#        142544
#        152832
#        163928
#        173214
#        188014
#        198031
#        214980
#        227979
#
# Disc length: 3177 seconds
#
# Revision: 0
# Processed by: cddbd v1.5.2PL0 Copyright (c) Steve Scherf et al.
# Submitted via: ExactAudioCopyFreeDBPlugin 1.0
#
DISCID=0d0c6714
DTITLE=Bobbie Gentry and Glen Campbell  - The Girl From Chickasaw County
DTITLE=(Complete Capitol Masters) '18 Disc 4 Bobbie Gentry and Glen Cam
DTITLE=pbell '68
DYEAR=2018
DGENRE=Country
TTITLE0=Less of Me
TTITLE1=Little Green Apples
TTITLE2=Gentle On My Mind
TTITLE3=Heart To Heart Talk
TTITLE4=My Elusive Dreams
TTITLE5=(It's Only Your) Imagination
TTITLE6=Mornin' Glory
TTITLE7=Terrible Tangled Web
TTITLE8=Sunday Mornin'
TTITLE9=Let It Be Me
TTITLE10=Scarborough Fair and  Canticle
TTITLE11=All I Have To Do Is Dream (Bonus Tracks)
TTITLE12=Walk Right Back (Bonus Tracks)
TTITLE13=Sunday Mornin' [Alternate Version] (Bonus Tracks)
TTITLE14=Let It Be Me [Without Strings] (Bonus Tracks)
TTITLE15=Scarborough Fair and Canticle [Without Strings] (Bonus Tracks)
TTITLE16=Love Took My Heart and Mashed That Sucker Flat (Bonus Tracks)
TTITLE17=Bobbie Gentry - Fool On The Hill [Japanese Language Version] 
TTITLE17=(Bonus Tracks) (Bonus Tracks)
TTITLE18=Bobbie Gentry - No Me Quiero Enamorar [Spanish Language I'll 
TTITLE18=Never Fall In Love Again] (Bonus Tracks)
TTITLE19=Bobbie Gentry - En Todas Partes [Spanish Language Here There 
TTITLE19=And Everywhere] (Bonus Tracks)
EXTD=
EXTT0=
EXTT1=
EXTT2=
EXTT3=
EXTT4=
EXTT5=
EXTT6=
EXTT7=
EXTT8=
EXTT9=
EXTT10=
EXTT11=
EXTT12=
EXTT13=
EXTT14=
EXTT15=
EXTT16=
EXTT17=
EXTT18=
EXTT19=
PLAYORDER=
